<svg xmlns="http://www.w3.org/2000/svg" viewBox="0 0 256 256">
  <!-- Nix snowflake: six lambda-chevron arms radiating at 60° intervals -->
  <g fill="#333333">
    <polygon points="234.0,128.0 200.0,108.0 164.0,114.0 152.0,128.0 164.0,142.0 200.0,148.0"/>
    <polygon points="181.0,219.8 181.3,180.4 158.1,152.2 140.0,148.8 133.9,166.2 146.7,200.4"/>
    <polygon points="75.0,219.8 109.3,200.4 122.1,166.2 116.0,148.8 97.9,152.2 74.7,180.4"/>
    <polygon points="22.0,128.0 56.0,148.0 92.0,142.0 104.0,128.0 92.0,114.0 56.0,108.0"/>
    <polygon points="75.0,36.2 74.7,75.6 97.9,103.8 116.0,107.2 122.1,89.8 109.3,55.6"/>
    <polygon points="181.0,36.2 146.7,55.6 133.9,89.8 140.0,107.2 158.1,103.8 181.3,75.6"/>
  </g>
</svg>
